<svg width="619" height="48" viewBox="0 0 619 48" fill="none" xmlns="http://www.w3.org/2000/svg">
<path d="M0.632 4.016C1.432 4.048 2.504 4.08 3.848 4.112C5.224 4.144 6.584 4.16 7.928 4.16C9.464 4.16 10.952 4.144 12.392 4.112C13.832 4.08 14.856 4.064 15.464 4.064C19.912 4.064 23.24 4.944 25.448 6.704C27.656 8.464 28.76 10.736 28.76 13.52C28.76 14.672 28.536 15.888 28.088 17.168C27.64 18.416 26.872 19.584 25.784 20.672C24.728 21.728 23.272 22.592 21.416 23.264C19.56 23.936 17.224 24.272 14.408 24.272H9.512V23.312H13.928C15.816 23.312 17.24 22.88 18.2 22.016C19.192 21.152 19.864 20.016 20.216 18.608C20.6 17.2 20.792 15.68 20.792 14.048C20.792 11.008 20.344 8.736 19.448 7.232C18.552 5.728 17.016 4.976 14.84 4.976C13.592 4.976 12.776 5.248 12.392 5.792C12.04 6.336 11.864 7.44 11.864 9.104V32.624C11.864 33.872 11.992 34.8 12.248 35.408C12.504 36.016 13 36.416 13.736 36.608C14.472 36.8 15.56 36.912 17 36.944V38C16.008 37.968 14.728 37.936 13.16 37.904C11.592 37.872 9.944 37.856 8.216 37.856C6.84 37.856 5.496 37.872 4.184 37.904C2.872 37.936 1.688 37.968 0.632 38V37.04C1.656 36.976 2.424 36.848 2.936 36.656C3.448 36.464 3.784 36.08 3.944 35.504C4.136 34.928 4.232 34.064 4.232 32.912V9.104C4.232 7.92 4.136 7.056 3.944 6.512C3.784 5.936 3.432 5.552 2.888 5.36C2.376 5.136 1.624 5.008 0.632 4.976V4.016ZM42.536 12.512C45.352 12.512 47.56 13.344 49.16 15.008C50.76 16.672 51.56 19.392 51.56 23.168H35.768L35.672 22.256H45.512C45.544 20.688 45.448 19.248 45.224 17.936C45 16.592 44.648 15.52 44.168 14.72C43.688 13.92 43.048 13.52 42.248 13.52C41.128 13.52 40.168 14.224 39.368 15.632C38.6 17.04 38.136 19.376 37.976 22.64L38.12 22.928C38.088 23.312 38.056 23.712 38.024 24.128C38.024 24.544 38.024 24.976 38.024 25.424C38.024 27.632 38.328 29.424 38.936 30.8C39.576 32.176 40.376 33.184 41.336 33.824C42.296 34.432 43.272 34.736 44.264 34.736C44.936 34.736 45.624 34.64 46.328 34.448C47.064 34.224 47.8 33.84 48.536 33.296C49.272 32.72 49.96 31.92 50.6 30.896L51.464 31.184C51.08 32.4 50.472 33.584 49.64 34.736C48.808 35.888 47.752 36.832 46.472 37.568C45.192 38.304 43.656 38.672 41.864 38.672C39.688 38.672 37.768 38.208 36.104 37.28C34.44 36.352 33.128 34.944 32.168 33.056C31.24 31.168 30.776 28.768 30.776 25.856C30.776 22.88 31.272 20.4 32.264 18.416C33.288 16.432 34.68 14.96 36.44 14C38.232 13.008 40.264 12.512 42.536 12.512ZM77.9555 0.415998V32.72C77.9555 34.16 78.1795 35.232 78.6275 35.936C79.0755 36.608 79.8755 36.944 81.0275 36.944V37.952C80.0355 37.856 79.0435 37.808 78.0515 37.808C76.7075 37.808 75.4435 37.856 74.2595 37.952C73.1075 38.048 72.0355 38.224 71.0435 38.48V6.176C71.0435 4.736 70.8195 3.68 70.3715 3.008C69.9555 2.304 69.1555 1.952 67.9715 1.952V0.943999C68.9955 1.04 69.9875 1.088 70.9475 1.088C72.2595 1.088 73.5075 1.04 74.6915 0.943999C75.8755 0.815999 76.9635 0.639998 77.9555 0.415998ZM65.7155 12.512C67.1235 12.512 68.3555 12.752 69.4115 13.232C70.4995 13.68 71.3475 14.448 71.9555 15.536L71.3795 16.064C70.9635 15.296 70.4035 14.752 69.6995 14.432C69.0275 14.08 68.3075 13.904 67.5395 13.904C65.9075 13.904 64.6115 14.864 63.6515 16.784C62.6915 18.672 62.2275 21.6 62.2595 25.568C62.2595 28.288 62.4355 30.464 62.7875 32.096C63.1715 33.696 63.6995 34.848 64.3715 35.552C65.0755 36.256 65.8755 36.608 66.7715 36.608C67.8595 36.608 68.8355 36.176 69.6995 35.312C70.5635 34.448 71.0275 33.28 71.0915 31.808L71.3315 33.488C70.8515 35.184 70.0675 36.48 68.9795 37.376C67.9235 38.24 66.5315 38.672 64.8035 38.672C62.9155 38.672 61.2195 38.208 59.7155 37.28C58.2435 36.352 57.0915 34.928 56.2595 33.008C55.4275 31.056 55.0115 28.544 55.0115 25.472C55.0115 22.56 55.4755 20.16 56.4035 18.272C57.3315 16.352 58.5955 14.912 60.1955 13.952C61.8275 12.992 63.6675 12.512 65.7155 12.512ZM99.539 12.512C100.563 12.512 101.395 12.736 102.035 13.184C102.675 13.6 103.139 14.144 103.427 14.816C103.747 15.488 103.907 16.192 103.907 16.928C103.907 18.112 103.555 19.088 102.851 19.856C102.179 20.592 101.283 20.96 100.163 20.96C99.043 20.96 98.163 20.688 97.523 20.144C96.915 19.568 96.611 18.816 96.611 17.888C96.611 16.992 96.803 16.256 97.187 15.68C97.603 15.072 98.115 14.56 98.723 14.144C98.275 14.016 97.827 14.032 97.379 14.192C96.771 14.288 96.195 14.544 95.651 14.96C95.107 15.344 94.643 15.84 94.259 16.448C93.875 17.024 93.571 17.664 93.347 18.368C93.123 19.04 93.011 19.696 93.011 20.336V33.056C93.011 34.592 93.379 35.632 94.115 36.176C94.883 36.72 96.019 36.992 97.523 36.992V38C96.787 37.968 95.715 37.936 94.307 37.904C92.899 37.84 91.427 37.808 89.891 37.808C88.611 37.808 87.315 37.84 86.003 37.904C84.691 37.936 83.699 37.968 83.027 38V36.992C84.147 36.992 84.931 36.752 85.379 36.272C85.859 35.792 86.099 34.88 86.099 33.536V18.416C86.099 16.976 85.875 15.92 85.427 15.248C85.011 14.544 84.211 14.192 83.027 14.192V13.184C84.051 13.28 85.043 13.328 86.003 13.328C87.347 13.328 88.595 13.28 89.747 13.184C90.931 13.056 92.019 12.88 93.011 12.656V17.12C93.395 16.256 93.907 15.472 94.547 14.768C95.187 14.064 95.923 13.52 96.755 13.136C97.587 12.72 98.515 12.512 99.539 12.512ZM117.161 12.512C119.497 12.512 121.545 12.944 123.305 13.808C125.065 14.672 126.441 16.064 127.433 17.984C128.425 19.904 128.921 22.448 128.921 25.616C128.921 28.784 128.425 31.328 127.433 33.248C126.441 35.136 125.065 36.512 123.305 37.376C121.545 38.24 119.497 38.672 117.161 38.672C114.889 38.672 112.857 38.24 111.065 37.376C109.305 36.512 107.913 35.136 106.889 33.248C105.897 31.328 105.401 28.784 105.401 25.616C105.401 22.448 105.897 19.904 106.889 17.984C107.913 16.064 109.305 14.672 111.065 13.808C112.857 12.944 114.889 12.512 117.161 12.512ZM117.161 13.472C115.881 13.472 114.809 14.432 113.945 16.352C113.081 18.24 112.649 21.328 112.649 25.616C112.649 29.904 113.081 32.992 113.945 34.88C114.809 36.768 115.881 37.712 117.161 37.712C118.473 37.712 119.545 36.768 120.377 34.88C121.241 32.992 121.673 29.904 121.673 25.616C121.673 21.328 121.241 18.24 120.377 16.352C119.545 14.432 118.473 13.472 117.161 13.472ZM175.041 4.016V4.928C174.017 5.152 172.913 5.6 171.729 6.272C170.577 6.944 169.361 8.032 168.081 9.536L159.057 20.288L161.841 16.304L173.265 34.112C173.713 34.848 174.193 35.44 174.705 35.888C175.217 36.336 175.889 36.72 176.721 37.04V38C175.601 37.936 174.353 37.904 172.977 37.904C171.601 37.872 170.353 37.856 169.233 37.856C168.561 37.856 167.745 37.872 166.785 37.904C165.825 37.904 164.609 37.936 163.137 38V37.04C164.449 36.976 165.233 36.8 165.489 36.512C165.777 36.192 165.665 35.648 165.153 34.88L158.193 23.6C157.745 22.864 157.345 22.32 156.993 21.968C156.641 21.584 156.289 21.328 155.937 21.2C155.585 21.04 155.121 20.944 154.545 20.912V19.904C155.953 19.872 157.201 19.488 158.289 18.752C159.409 18.016 160.625 16.896 161.937 15.392L164.769 11.984C165.985 10.544 166.689 9.312 166.881 8.288C167.105 7.232 166.897 6.416 166.257 5.84C165.649 5.264 164.705 4.96 163.425 4.928V4.016C164.225 4.048 164.977 4.08 165.681 4.112C166.417 4.112 167.169 4.128 167.937 4.16C168.737 4.16 169.601 4.16 170.529 4.16C171.457 4.16 172.289 4.144 173.025 4.112C173.793 4.08 174.465 4.048 175.041 4.016ZM158.433 4.016V4.976C157.409 5.008 156.625 5.136 156.081 5.36C155.569 5.552 155.233 5.936 155.073 6.512C154.913 7.056 154.833 7.92 154.833 9.104V32.912C154.833 34.064 154.913 34.928 155.073 35.504C155.265 36.08 155.617 36.464 156.129 36.656C156.641 36.848 157.409 36.976 158.433 37.04V38C157.569 37.936 156.481 37.904 155.169 37.904C153.857 37.872 152.529 37.856 151.185 37.856C149.649 37.856 148.193 37.872 146.817 37.904C145.473 37.904 144.401 37.936 143.601 38V37.04C144.625 36.976 145.393 36.848 145.905 36.656C146.417 36.464 146.753 36.08 146.913 35.504C147.105 34.928 147.201 34.064 147.201 32.912V9.104C147.201 7.92 147.105 7.056 146.913 6.512C146.753 5.936 146.401 5.552 145.857 5.36C145.345 5.136 144.593 5.008 143.601 4.976V4.016C144.401 4.048 145.473 4.08 146.817 4.112C148.193 4.144 149.649 4.16 151.185 4.16C152.529 4.16 153.857 4.144 155.169 4.112C156.481 4.08 157.569 4.048 158.433 4.016ZM184.01 38.336C182.57 38.336 181.37 38.064 180.41 37.52C179.45 36.976 178.746 36.256 178.298 35.36C177.85 34.432 177.626 33.424 177.626 32.336C177.626 30.96 177.93 29.84 178.538 28.976C179.178 28.112 179.994 27.408 180.986 26.864C181.978 26.32 183.018 25.872 184.106 25.52C185.226 25.168 186.282 24.832 187.274 24.512C188.298 24.16 189.114 23.76 189.722 23.312C190.362 22.832 190.682 22.224 190.682 21.488V17.744C190.682 16.912 190.538 16.176 190.25 15.536C189.994 14.864 189.578 14.352 189.002 14C188.458 13.648 187.738 13.472 186.842 13.472C186.202 13.472 185.562 13.568 184.922 13.76C184.282 13.92 183.754 14.208 183.338 14.624C184.234 14.944 184.922 15.44 185.402 16.112C185.914 16.752 186.17 17.488 186.17 18.32C186.17 19.408 185.786 20.272 185.018 20.912C184.282 21.552 183.402 21.872 182.378 21.872C181.226 21.872 180.346 21.52 179.738 20.816C179.162 20.08 178.874 19.2 178.874 18.176C178.874 17.248 179.098 16.48 179.546 15.872C180.026 15.264 180.682 14.688 181.514 14.144C182.41 13.632 183.482 13.232 184.73 12.944C186.01 12.656 187.386 12.512 188.858 12.512C190.33 12.512 191.658 12.672 192.842 12.992C194.026 13.28 195.018 13.824 195.818 14.624C196.554 15.36 197.034 16.272 197.258 17.36C197.482 18.416 197.594 19.76 197.594 21.392V34.448C197.594 35.248 197.674 35.808 197.834 36.128C197.994 36.416 198.266 36.56 198.65 36.56C198.938 36.56 199.21 36.48 199.466 36.32C199.754 36.16 200.058 35.968 200.378 35.744L200.858 36.56C200.186 37.136 199.402 37.584 198.506 37.904C197.642 38.192 196.666 38.336 195.578 38.336C194.394 38.336 193.45 38.176 192.746 37.856C192.042 37.504 191.53 37.04 191.21 36.464C190.922 35.888 190.778 35.216 190.778 34.448C190.01 35.664 189.082 36.624 187.994 37.328C186.906 38 185.578 38.336 184.01 38.336ZM187.418 35.264C188.058 35.264 188.634 35.12 189.146 34.832C189.69 34.512 190.202 34 190.682 33.296V23.456C190.394 23.936 189.994 24.368 189.482 24.752C188.97 25.136 188.426 25.536 187.85 25.952C187.274 26.336 186.714 26.768 186.17 27.248C185.658 27.728 185.242 28.32 184.922 29.024C184.602 29.728 184.442 30.576 184.442 31.568C184.442 32.816 184.714 33.744 185.258 34.352C185.802 34.96 186.522 35.264 187.418 35.264ZM218.742 12.512C219.766 12.512 220.598 12.736 221.238 13.184C221.878 13.6 222.342 14.144 222.63 14.816C222.95 15.488 223.11 16.192 223.11 16.928C223.11 18.112 222.758 19.088 222.054 19.856C221.382 20.592 220.486 20.96 219.366 20.96C218.246 20.96 217.366 20.688 216.726 20.144C216.118 19.568 215.814 18.816 215.814 17.888C215.814 16.992 216.006 16.256 216.39 15.68C216.806 15.072 217.318 14.56 217.926 14.144C217.478 14.016 217.03 14.032 216.582 14.192C215.974 14.288 215.398 14.544 214.854 14.96C214.31 15.344 213.846 15.84 213.462 16.448C213.078 17.024 212.774 17.664 212.55 18.368C212.326 19.04 212.214 19.696 212.214 20.336V33.056C212.214 34.592 212.582 35.632 213.318 36.176C214.086 36.72 215.222 36.992 216.726 36.992V38C215.99 37.968 214.918 37.936 213.51 37.904C212.102 37.84 210.63 37.808 209.094 37.808C207.814 37.808 206.518 37.84 205.206 37.904C203.894 37.936 202.902 37.968 202.23 38V36.992C203.35 36.992 204.134 36.752 204.582 36.272C205.062 35.792 205.302 34.88 205.302 33.536V18.416C205.302 16.976 205.078 15.92 204.63 15.248C204.214 14.544 203.414 14.192 202.23 14.192V13.184C203.254 13.28 204.246 13.328 205.206 13.328C206.55 13.328 207.798 13.28 208.95 13.184C210.134 13.056 211.222 12.88 212.214 12.656V17.12C212.598 16.256 213.11 15.472 213.75 14.768C214.39 14.064 215.126 13.52 215.958 13.136C216.79 12.72 217.718 12.512 218.742 12.512ZM231.26 38.336C229.82 38.336 228.62 38.064 227.66 37.52C226.7 36.976 225.996 36.256 225.548 35.36C225.1 34.432 224.876 33.424 224.876 32.336C224.876 30.96 225.18 29.84 225.788 28.976C226.428 28.112 227.244 27.408 228.236 26.864C229.228 26.32 230.268 25.872 231.356 25.52C232.476 25.168 233.532 24.832 234.524 24.512C235.548 24.16 236.364 23.76 236.972 23.312C237.612 22.832 237.932 22.224 237.932 21.488V17.744C237.932 16.912 237.788 16.176 237.5 15.536C237.244 14.864 236.828 14.352 236.252 14C235.708 13.648 234.988 13.472 234.092 13.472C233.452 13.472 232.812 13.568 232.172 13.76C231.532 13.92 231.004 14.208 230.588 14.624C231.484 14.944 232.172 15.44 232.652 16.112C233.164 16.752 233.42 17.488 233.42 18.32C233.42 19.408 233.036 20.272 232.268 20.912C231.532 21.552 230.652 21.872 229.628 21.872C228.476 21.872 227.596 21.52 226.988 20.816C226.412 20.08 226.124 19.2 226.124 18.176C226.124 17.248 226.348 16.48 226.796 15.872C227.276 15.264 227.932 14.688 228.764 14.144C229.66 13.632 230.732 13.232 231.98 12.944C233.26 12.656 234.636 12.512 236.108 12.512C237.58 12.512 238.908 12.672 240.092 12.992C241.276 13.28 242.268 13.824 243.068 14.624C243.804 15.36 244.284 16.272 244.508 17.36C244.732 18.416 244.844 19.76 244.844 21.392V34.448C244.844 35.248 244.924 35.808 245.084 36.128C245.244 36.416 245.516 36.56 245.9 36.56C246.188 36.56 246.46 36.48 246.716 36.32C247.004 36.16 247.308 35.968 247.628 35.744L248.108 36.56C247.436 37.136 246.652 37.584 245.756 37.904C244.892 38.192 243.916 38.336 242.828 38.336C241.644 38.336 240.7 38.176 239.996 37.856C239.292 37.504 238.78 37.04 238.46 36.464C238.172 35.888 238.028 35.216 238.028 34.448C237.26 35.664 236.332 36.624 235.244 37.328C234.156 38 232.828 38.336 231.26 38.336ZM234.668 35.264C235.308 35.264 235.884 35.12 236.396 34.832C236.94 34.512 237.452 34 237.932 33.296V23.456C237.644 23.936 237.244 24.368 236.732 24.752C236.22 25.136 235.676 25.536 235.1 25.952C234.524 26.336 233.964 26.768 233.42 27.248C232.908 27.728 232.492 28.32 232.172 29.024C231.852 29.728 231.692 30.576 231.692 31.568C231.692 32.816 231.964 33.744 232.508 34.352C233.052 34.96 233.772 35.264 234.668 35.264ZM258.984 12.512C260.328 12.512 261.496 12.688 262.488 13.04C263.512 13.36 264.248 13.68 264.696 14C265.784 14.736 266.456 14.256 266.712 12.56H267.72C267.656 13.456 267.608 14.56 267.576 15.872C267.544 17.152 267.528 18.864 267.528 21.008H266.52C266.36 19.824 266.056 18.656 265.608 17.504C265.16 16.352 264.504 15.408 263.64 14.672C262.808 13.936 261.72 13.568 260.376 13.568C259.448 13.568 258.664 13.84 258.024 14.384C257.384 14.896 257.064 15.648 257.064 16.64C257.064 17.6 257.352 18.448 257.928 19.184C258.504 19.888 259.24 20.576 260.136 21.248C261.064 21.888 262.024 22.576 263.016 23.312C264.072 24.112 265.032 24.912 265.896 25.712C266.76 26.48 267.448 27.328 267.96 28.256C268.472 29.184 268.728 30.288 268.728 31.568C268.728 33.008 268.312 34.272 267.48 35.36C266.648 36.416 265.544 37.232 264.168 37.808C262.824 38.384 261.32 38.672 259.656 38.672C258.696 38.672 257.832 38.576 257.064 38.384C256.328 38.192 255.688 37.952 255.144 37.664C254.728 37.472 254.328 37.296 253.944 37.136C253.592 36.944 253.256 36.784 252.936 36.656C252.616 36.56 252.328 36.672 252.072 36.992C251.848 37.312 251.672 37.76 251.544 38.336H250.536C250.6 37.312 250.648 36.064 250.68 34.592C250.712 33.12 250.728 31.168 250.728 28.736H251.736C251.928 30.464 252.28 32 252.792 33.344C253.304 34.656 253.992 35.696 254.856 36.464C255.752 37.2 256.872 37.568 258.216 37.568C258.76 37.568 259.288 37.456 259.8 37.232C260.312 37.008 260.728 36.64 261.048 36.128C261.4 35.616 261.576 34.96 261.576 34.16C261.576 32.752 261.112 31.584 260.184 30.656C259.288 29.728 258.136 28.72 256.728 27.632C255.704 26.8 254.728 25.984 253.8 25.184C252.904 24.352 252.168 23.456 251.592 22.496C251.016 21.504 250.728 20.384 250.728 19.136C250.728 17.696 251.112 16.48 251.88 15.488C252.648 14.496 253.656 13.76 254.904 13.28C256.184 12.768 257.544 12.512 258.984 12.512ZM295.556 12.656V32.768C295.556 34.208 295.78 35.28 296.228 35.984C296.676 36.656 297.476 36.992 298.628 36.992V38C297.636 37.904 296.644 37.856 295.652 37.856C294.308 37.856 293.06 37.904 291.908 38C290.756 38.096 289.668 38.272 288.644 38.528V34.208C287.876 35.808 286.804 36.96 285.428 37.664C284.084 38.336 282.58 38.672 280.916 38.672C279.572 38.672 278.484 38.496 277.652 38.144C276.82 37.792 276.164 37.344 275.684 36.8C275.14 36.192 274.756 35.392 274.532 34.4C274.308 33.408 274.196 32.128 274.196 30.56V18.416C274.196 16.976 273.972 15.92 273.524 15.248C273.108 14.544 272.308 14.192 271.124 14.192V13.184C272.148 13.28 273.14 13.328 274.1 13.328C275.444 13.328 276.692 13.28 277.844 13.184C279.028 13.056 280.116 12.88 281.108 12.656V32.528C281.108 33.328 281.172 34.032 281.3 34.64C281.46 35.248 281.748 35.728 282.164 36.08C282.58 36.4 283.188 36.56 283.988 36.56C284.852 36.56 285.62 36.32 286.292 35.84C286.996 35.36 287.556 34.704 287.972 33.872C288.42 33.008 288.644 32.048 288.644 30.992V18.416C288.644 16.976 288.42 15.92 287.972 15.248C287.556 14.544 286.756 14.192 285.572 14.192V13.184C286.596 13.28 287.588 13.328 288.548 13.328C289.892 13.328 291.14 13.28 292.292 13.184C293.476 13.056 294.564 12.88 295.556 12.656ZM324.377 0.415998V32.72C324.377 34.16 324.601 35.232 325.049 35.936C325.497 36.608 326.297 36.944 327.449 36.944V37.952C326.457 37.856 325.465 37.808 324.473 37.808C323.129 37.808 321.865 37.856 320.681 37.952C319.529 38.048 318.457 38.224 317.465 38.48V6.176C317.465 4.736 317.241 3.68 316.793 3.008C316.377 2.304 315.577 1.952 314.393 1.952V0.943999C315.417 1.04 316.409 1.088 317.369 1.088C318.681 1.088 319.929 1.04 321.113 0.943999C322.297 0.815999 323.385 0.639998 324.377 0.415998ZM312.137 12.512C313.545 12.512 314.777 12.752 315.833 13.232C316.921 13.68 317.769 14.448 318.377 15.536L317.801 16.064C317.385 15.296 316.825 14.752 316.121 14.432C315.449 14.08 314.729 13.904 313.961 13.904C312.329 13.904 311.033 14.864 310.073 16.784C309.113 18.672 308.649 21.6 308.681 25.568C308.681 28.288 308.857 30.464 309.209 32.096C309.593 33.696 310.121 34.848 310.793 35.552C311.497 36.256 312.297 36.608 313.193 36.608C314.281 36.608 315.257 36.176 316.121 35.312C316.985 34.448 317.449 33.28 317.513 31.808L317.753 33.488C317.273 35.184 316.489 36.48 315.401 37.376C314.345 38.24 312.953 38.672 311.225 38.672C309.337 38.672 307.641 38.208 306.137 37.28C304.665 36.352 303.513 34.928 302.681 33.008C301.849 31.056 301.433 28.544 301.433 25.472C301.433 22.56 301.897 20.16 302.825 18.272C303.753 16.352 305.017 14.912 306.617 13.952C308.249 12.992 310.089 12.512 312.137 12.512ZM336.073 38.336C334.633 38.336 333.433 38.064 332.473 37.52C331.513 36.976 330.809 36.256 330.361 35.36C329.913 34.432 329.689 33.424 329.689 32.336C329.689 30.96 329.993 29.84 330.601 28.976C331.241 28.112 332.057 27.408 333.049 26.864C334.041 26.32 335.081 25.872 336.169 25.52C337.289 25.168 338.345 24.832 339.337 24.512C340.361 24.16 341.177 23.76 341.785 23.312C342.425 22.832 342.745 22.224 342.745 21.488V17.744C342.745 16.912 342.601 16.176 342.313 15.536C342.057 14.864 341.641 14.352 341.065 14C340.521 13.648 339.801 13.472 338.905 13.472C338.265 13.472 337.625 13.568 336.985 13.76C336.345 13.92 335.817 14.208 335.401 14.624C336.297 14.944 336.985 15.44 337.465 16.112C337.977 16.752 338.233 17.488 338.233 18.32C338.233 19.408 337.849 20.272 337.081 20.912C336.345 21.552 335.465 21.872 334.441 21.872C333.289 21.872 332.409 21.52 331.801 20.816C331.225 20.08 330.937 19.2 330.937 18.176C330.937 17.248 331.161 16.48 331.609 15.872C332.089 15.264 332.745 14.688 333.577 14.144C334.473 13.632 335.545 13.232 336.793 12.944C338.073 12.656 339.449 12.512 340.921 12.512C342.393 12.512 343.721 12.672 344.905 12.992C346.089 13.28 347.081 13.824 347.881 14.624C348.617 15.36 349.097 16.272 349.321 17.36C349.545 18.416 349.657 19.76 349.657 21.392V34.448C349.657 35.248 349.737 35.808 349.897 36.128C350.057 36.416 350.329 36.56 350.713 36.56C351.001 36.56 351.273 36.48 351.529 36.32C351.817 36.16 352.121 35.968 352.441 35.744L352.921 36.56C352.249 37.136 351.465 37.584 350.569 37.904C349.705 38.192 348.729 38.336 347.641 38.336C346.457 38.336 345.513 38.176 344.809 37.856C344.105 37.504 343.593 37.04 343.273 36.464C342.985 35.888 342.841 35.216 342.841 34.448C342.073 35.664 341.145 36.624 340.057 37.328C338.969 38 337.641 38.336 336.073 38.336ZM339.481 35.264C340.121 35.264 340.697 35.12 341.209 34.832C341.753 34.512 342.265 34 342.745 33.296V23.456C342.457 23.936 342.057 24.368 341.545 24.752C341.033 25.136 340.489 25.536 339.913 25.952C339.337 26.336 338.777 26.768 338.233 27.248C337.721 27.728 337.305 28.32 336.985 29.024C336.665 29.728 336.505 30.576 336.505 31.568C336.505 32.816 336.777 33.744 337.321 34.352C337.865 34.96 338.585 35.264 339.481 35.264ZM372.149 12.512C373.493 12.512 374.581 12.688 375.413 13.04C376.277 13.36 376.949 13.808 377.429 14.384C377.941 14.992 378.309 15.776 378.533 16.736C378.789 17.696 378.917 18.992 378.917 20.624V33.536C378.917 34.88 379.141 35.792 379.589 36.272C380.069 36.752 380.869 36.992 381.989 36.992V38C381.381 37.968 380.469 37.936 379.253 37.904C378.037 37.84 376.837 37.808 375.653 37.808C374.437 37.808 373.237 37.84 372.053 37.904C370.901 37.936 370.021 37.968 369.413 38V36.992C370.373 36.992 371.045 36.752 371.429 36.272C371.813 35.792 372.005 34.88 372.005 33.536V18.608C372.005 17.808 371.925 17.12 371.765 16.544C371.605 15.936 371.317 15.472 370.901 15.152C370.485 14.8 369.861 14.624 369.029 14.624C368.165 14.624 367.365 14.864 366.629 15.344C365.925 15.824 365.349 16.496 364.901 17.36C364.485 18.192 364.277 19.136 364.277 20.192V33.536C364.277 34.88 364.469 35.792 364.853 36.272C365.269 36.752 365.941 36.992 366.869 36.992V38C366.293 37.968 365.445 37.936 364.325 37.904C363.237 37.84 362.101 37.808 360.917 37.808C359.701 37.808 358.453 37.84 357.173 37.904C355.893 37.936 354.933 37.968 354.293 38V36.992C355.413 36.992 356.197 36.752 356.645 36.272C357.125 35.792 357.365 34.88 357.365 33.536V18.416C357.365 16.976 357.141 15.92 356.693 15.248C356.277 14.544 355.477 14.192 354.293 14.192V13.184C355.317 13.28 356.309 13.328 357.269 13.328C358.613 13.328 359.861 13.28 361.013 13.184C362.197 13.056 363.285 12.88 364.277 12.656V16.976C365.077 15.344 366.165 14.192 367.541 13.52C368.917 12.848 370.453 12.512 372.149 12.512ZM390.017 0.799998C391.361 0.799998 392.417 1.136 393.185 1.808C393.985 2.448 394.385 3.344 394.385 4.496C394.385 5.648 393.985 6.56 393.185 7.232C392.417 7.872 391.361 8.192 390.017 8.192C388.673 8.192 387.601 7.872 386.801 7.232C386.033 6.56 385.649 5.648 385.649 4.496C385.649 3.344 386.033 2.448 386.801 1.808C387.601 1.136 388.673 0.799998 390.017 0.799998ZM393.761 12.656V33.536C393.761 34.88 393.985 35.792 394.433 36.272C394.913 36.752 395.713 36.992 396.833 36.992V38C396.257 37.968 395.361 37.936 394.145 37.904C392.929 37.84 391.697 37.808 390.449 37.808C389.201 37.808 387.937 37.84 386.657 37.904C385.377 37.936 384.417 37.968 383.777 38V36.992C384.897 36.992 385.681 36.752 386.129 36.272C386.609 35.792 386.849 34.88 386.849 33.536V18.416C386.849 16.976 386.625 15.92 386.177 15.248C385.761 14.544 384.961 14.192 383.777 14.192V13.184C384.801 13.28 385.793 13.328 386.753 13.328C388.097 13.328 389.345 13.28 390.497 13.184C391.681 13.056 392.769 12.88 393.761 12.656ZM425.721 4.016V4.976C424.633 5.008 423.801 5.136 423.225 5.36C422.681 5.552 422.313 5.936 422.121 6.512C421.929 7.056 421.833 7.92 421.833 9.104V33.488C421.833 34.48 421.897 35.216 422.025 35.696C422.185 36.176 422.473 36.496 422.889 36.656C423.337 36.816 423.993 36.896 424.857 36.896H427.209C428.297 36.896 429.321 36.64 430.281 36.128C431.241 35.616 432.105 34.896 432.873 33.968C433.641 33.008 434.281 31.872 434.793 30.56C435.305 29.248 435.689 27.792 435.945 26.192H437.049C436.953 27.28 436.905 28.688 436.905 30.416C436.905 31.152 436.921 32.224 436.953 33.632C436.985 35.04 437.081 36.496 437.241 38C435.609 37.936 433.769 37.904 431.721 37.904C429.673 37.872 427.849 37.856 426.249 37.856C425.449 37.856 424.425 37.856 423.177 37.856C421.929 37.856 420.585 37.872 419.145 37.904C417.705 37.904 416.249 37.92 414.777 37.952C413.305 37.952 411.913 37.968 410.601 38V37.04C411.625 36.976 412.393 36.848 412.905 36.656C413.417 36.464 413.753 36.08 413.913 35.504C414.105 34.928 414.201 34.064 414.201 32.912V9.104C414.201 7.92 414.105 7.056 413.913 6.512C413.753 5.936 413.401 5.552 412.857 5.36C412.345 5.136 411.593 5.008 410.601 4.976V4.016C411.401 4.048 412.473 4.08 413.817 4.112C415.193 4.144 416.649 4.16 418.185 4.16C419.593 4.16 420.969 4.144 422.313 4.112C423.689 4.08 424.825 4.048 425.721 4.016ZM451.849 12.512C454.185 12.512 456.233 12.944 457.993 13.808C459.753 14.672 461.129 16.064 462.121 17.984C463.113 19.904 463.609 22.448 463.609 25.616C463.609 28.784 463.113 31.328 462.121 33.248C461.129 35.136 459.753 36.512 457.993 37.376C456.233 38.24 454.185 38.672 451.849 38.672C449.577 38.672 447.545 38.24 445.753 37.376C443.993 36.512 442.601 35.136 441.577 33.248C440.585 31.328 440.089 28.784 440.089 25.616C440.089 22.448 440.585 19.904 441.577 17.984C442.601 16.064 443.993 14.672 445.753 13.808C447.545 12.944 449.577 12.512 451.849 12.512ZM451.849 13.472C450.569 13.472 449.497 14.432 448.633 16.352C447.769 18.24 447.337 21.328 447.337 25.616C447.337 29.904 447.769 32.992 448.633 34.88C449.497 36.768 450.569 37.712 451.849 37.712C453.161 37.712 454.233 36.768 455.065 34.88C455.929 32.992 456.361 29.904 456.361 25.616C456.361 21.328 455.929 18.24 455.065 16.352C454.233 14.432 453.161 13.472 451.849 13.472ZM490.509 12.656V32.768C490.509 34.208 490.733 35.28 491.181 35.984C491.629 36.656 492.429 36.992 493.581 36.992V38C492.589 37.904 491.597 37.856 490.605 37.856C489.261 37.856 488.013 37.904 486.861 38C485.709 38.096 484.621 38.272 483.597 38.528V34.208C482.829 35.808 481.757 36.96 480.381 37.664C479.037 38.336 477.533 38.672 475.869 38.672C474.525 38.672 473.437 38.496 472.605 38.144C471.773 37.792 471.117 37.344 470.637 36.8C470.093 36.192 469.709 35.392 469.485 34.4C469.261 33.408 469.149 32.128 469.149 30.56V18.416C469.149 16.976 468.925 15.92 468.477 15.248C468.061 14.544 467.261 14.192 466.077 14.192V13.184C467.101 13.28 468.093 13.328 469.053 13.328C470.397 13.328 471.645 13.28 472.797 13.184C473.981 13.056 475.069 12.88 476.061 12.656V32.528C476.061 33.328 476.125 34.032 476.253 34.64C476.413 35.248 476.701 35.728 477.117 36.08C477.533 36.4 478.141 36.56 478.941 36.56C479.805 36.56 480.573 36.32 481.245 35.84C481.949 35.36 482.509 34.704 482.925 33.872C483.373 33.008 483.597 32.048 483.597 30.992V18.416C483.597 16.976 483.373 15.92 482.925 15.248C482.509 14.544 481.709 14.192 480.525 14.192V13.184C481.549 13.28 482.541 13.328 483.501 13.328C484.845 13.328 486.093 13.28 487.245 13.184C488.429 13.056 489.517 12.88 490.509 12.656ZM512.227 12.512C513.251 12.512 514.083 12.736 514.723 13.184C515.363 13.6 515.827 14.144 516.115 14.816C516.435 15.488 516.595 16.192 516.595 16.928C516.595 18.112 516.243 19.088 515.539 19.856C514.867 20.592 513.971 20.96 512.851 20.96C511.731 20.96 510.851 20.688 510.211 20.144C509.603 19.568 509.299 18.816 509.299 17.888C509.299 16.992 509.491 16.256 509.875 15.68C510.291 15.072 510.803 14.56 511.411 14.144C510.963 14.016 510.515 14.032 510.067 14.192C509.459 14.288 508.883 14.544 508.339 14.96C507.795 15.344 507.331 15.84 506.947 16.448C506.563 17.024 506.259 17.664 506.035 18.368C505.811 19.04 505.699 19.696 505.699 20.336V33.056C505.699 34.592 506.067 35.632 506.803 36.176C507.571 36.72 508.707 36.992 510.211 36.992V38C509.475 37.968 508.403 37.936 506.995 37.904C505.587 37.84 504.115 37.808 502.579 37.808C501.299 37.808 500.003 37.84 498.691 37.904C497.379 37.936 496.387 37.968 495.715 38V36.992C496.835 36.992 497.619 36.752 498.067 36.272C498.547 35.792 498.787 34.88 498.787 33.536V18.416C498.787 16.976 498.563 15.92 498.115 15.248C497.699 14.544 496.899 14.192 495.715 14.192V13.184C496.739 13.28 497.731 13.328 498.691 13.328C500.035 13.328 501.283 13.28 502.435 13.184C503.619 13.056 504.707 12.88 505.699 12.656V17.12C506.083 16.256 506.595 15.472 507.234 14.768C507.875 14.064 508.611 13.52 509.443 13.136C510.275 12.72 511.203 12.512 512.227 12.512ZM529.849 12.512C532.665 12.512 534.873 13.344 536.473 15.008C538.073 16.672 538.873 19.392 538.873 23.168H523.081L522.985 22.256H532.825C532.857 20.688 532.761 19.248 532.537 17.936C532.313 16.592 531.961 15.52 531.481 14.72C531.001 13.92 530.361 13.52 529.561 13.52C528.441 13.52 527.481 14.224 526.681 15.632C525.913 17.04 525.449 19.376 525.289 22.64L525.433 22.928C525.401 23.312 525.369 23.712 525.337 24.128C525.337 24.544 525.337 24.976 525.337 25.424C525.337 27.632 525.641 29.424 526.249 30.8C526.889 32.176 527.689 33.184 528.648 33.824C529.609 34.432 530.585 34.736 531.577 34.736C532.249 34.736 532.937 34.64 533.641 34.448C534.377 34.224 535.113 33.84 535.849 33.296C536.585 32.72 537.273 31.92 537.913 30.896L538.777 31.184C538.393 32.4 537.785 33.584 536.953 34.736C536.121 35.888 535.065 36.832 533.785 37.568C532.505 38.304 530.969 38.672 529.177 38.672C527.001 38.672 525.081 38.208 523.417 37.28C521.753 36.352 520.441 34.944 519.48 33.056C518.553 31.168 518.089 28.768 518.089 25.856C518.089 22.88 518.585 20.4 519.577 18.416C520.601 16.432 521.993 14.96 523.753 14C525.545 13.008 527.577 12.512 529.849 12.512ZM559.227 12.512C560.571 12.512 561.659 12.688 562.491 13.04C563.355 13.36 564.027 13.808 564.507 14.384C565.019 14.992 565.387 15.776 565.611 16.736C565.867 17.696 565.995 18.992 565.995 20.624V33.536C565.995 34.88 566.219 35.792 566.667 36.272C567.147 36.752 567.947 36.992 569.067 36.992V38C568.459 37.968 567.547 37.936 566.331 37.904C565.115 37.84 563.915 37.808 562.731 37.808C561.515 37.808 560.315 37.84 559.131 37.904C557.979 37.936 557.099 37.968 556.491 38V36.992C557.451 36.992 558.123 36.752 558.507 36.272C558.891 35.792 559.083 34.88 559.083 33.536V18.608C559.083 17.808 559.003 17.12 558.843 16.544C558.683 15.936 558.395 15.472 557.979 15.152C557.563 14.8 556.939 14.624 556.107 14.624C555.243 14.624 554.443 14.864 553.707 15.344C553.003 15.824 552.427 16.496 551.979 17.36C551.563 18.192 551.355 19.136 551.355 20.192V33.536C551.355 34.88 551.547 35.792 551.931 36.272C552.347 36.752 553.019 36.992 553.947 36.992V38C553.371 37.968 552.523 37.936 551.403 37.904C550.315 37.84 549.179 37.808 547.995 37.808C546.779 37.808 545.531 37.84 544.251 37.904C542.971 37.936 542.011 37.968 541.371 38V36.992C542.491 36.992 543.275 36.752 543.723 36.272C544.203 35.792 544.443 34.88 544.443 33.536V18.416C544.443 16.976 544.219 15.92 543.771 15.248C543.355 14.544 542.555 14.192 541.371 14.192V13.184C542.395 13.28 543.387 13.328 544.347 13.328C545.691 13.328 546.939 13.28 548.091 13.184C549.275 13.056 550.363 12.88 551.355 12.656V16.976C552.155 15.344 553.243 14.192 554.619 13.52C555.995 12.848 557.531 12.512 559.227 12.512ZM583.335 12.512C584.583 12.512 585.719 12.656 586.743 12.944C587.799 13.2 588.663 13.536 589.335 13.952C590.167 14.464 590.807 15.104 591.255 15.872C591.735 16.608 591.975 17.472 591.975 18.464C591.975 19.584 591.623 20.512 590.919 21.248C590.215 21.952 589.303 22.304 588.183 22.304C587.063 22.304 586.167 21.984 585.495 21.344C584.823 20.704 584.487 19.84 584.487 18.752C584.487 17.728 584.807 16.88 585.447 16.208C586.087 15.504 586.823 15.04 587.655 14.816C587.399 14.496 587.015 14.224 586.503 14C585.991 13.776 585.415 13.664 584.775 13.664C583.783 13.664 582.903 13.952 582.135 14.528C581.399 15.104 580.775 15.904 580.263 16.928C579.751 17.952 579.351 19.152 579.063 20.528C578.807 21.904 578.679 23.408 578.679 25.04C578.679 27.504 578.983 29.44 579.591 30.848C580.231 32.256 581.031 33.248 581.991 33.824C582.983 34.4 584.007 34.688 585.063 34.688C585.671 34.688 586.327 34.592 587.031 34.4C587.767 34.208 588.503 33.824 589.239 33.248C590.007 32.672 590.711 31.856 591.351 30.8L592.167 31.088C591.815 32.272 591.239 33.456 590.439 34.64C589.639 35.824 588.599 36.8 587.319 37.568C586.039 38.304 584.471 38.672 582.615 38.672C580.535 38.672 578.647 38.224 576.951 37.328C575.287 36.4 573.943 34.992 572.919 33.104C571.927 31.184 571.431 28.72 571.431 25.712C571.431 22.832 571.943 20.416 572.967 18.464C574.023 16.48 575.447 14.992 577.239 14C579.031 13.008 581.063 12.512 583.335 12.512ZM582.279 37.904L581.271 41.12C581.783 40.928 582.327 40.784 582.903 40.688C583.479 40.592 584.071 40.544 584.679 40.544C585.767 40.544 586.583 40.768 587.127 41.216C587.703 41.696 587.991 42.336 587.991 43.136C587.991 44.032 587.671 44.768 587.031 45.344C586.423 45.92 585.607 46.336 584.583 46.592C583.559 46.88 582.455 47.024 581.271 47.024C580.407 47.024 579.623 46.96 578.919 46.832C578.215 46.736 577.607 46.608 577.095 46.448L577.335 45.584C577.527 45.616 577.815 45.648 578.199 45.68C578.583 45.744 578.999 45.776 579.447 45.776C579.991 45.776 580.519 45.712 581.031 45.584C581.575 45.456 582.023 45.248 582.375 44.96C582.759 44.672 582.951 44.288 582.951 43.808C582.951 42.976 582.423 42.56 581.367 42.56C581.111 42.56 580.791 42.576 580.407 42.608C580.055 42.672 579.735 42.768 579.447 42.896L580.983 37.904H582.279ZM607.052 12.512C609.388 12.512 611.436 12.944 613.196 13.808C614.956 14.672 616.332 16.064 617.324 17.984C618.316 19.904 618.812 22.448 618.812 25.616C618.812 28.784 618.316 31.328 617.324 33.248C616.332 35.136 614.956 36.512 613.196 37.376C611.436 38.24 609.388 38.672 607.052 38.672C604.78 38.672 602.748 38.24 600.956 37.376C599.196 36.512 597.804 35.136 596.78 33.248C595.788 31.328 595.292 28.784 595.292 25.616C595.292 22.448 595.788 19.904 596.78 17.984C597.804 16.064 599.196 14.672 600.956 13.808C602.748 12.944 604.78 12.512 607.052 12.512ZM607.052 13.472C605.772 13.472 604.7 14.432 603.836 16.352C602.972 18.24 602.54 21.328 602.54 25.616C602.54 29.904 602.972 32.992 603.836 34.88C604.7 36.768 605.772 37.712 607.052 37.712C608.364 37.712 609.436 36.768 610.268 34.88C611.132 32.992 611.564 29.904 611.564 25.616C611.564 21.328 611.132 18.24 610.268 16.352C609.436 14.432 608.364 13.472 607.052 13.472Z" fill="#141414"/>
</svg>
